<svg width="39" height="36" viewBox="0 0 39 36" fill="none" xmlns="http://www.w3.org/2000/svg">
<rect x="0.5" y="5.5" width="22" height="26" stroke="#424242"/>
<mask id="path-2-inside-1_13144_4875" fill="white">
<path fill-rule="evenodd" clip-rule="evenodd" d="M3 0C1.34315 0 0 1.34315 0 3V33C0 34.6569 1.34315 36 3 36H20C21.6569 36 23 34.6569 23 33V28H11C9.34315 28 8 26.6569 8 25V12C8 10.3431 9.34315 9 11 9H23V3C23 1.34315 21.6569 0 20 0H3Z"/>
</mask>
<path fill-rule="evenodd" clip-rule="evenodd" d="M3 0C1.34315 0 0 1.34315 0 3V33C0 34.6569 1.34315 36 3 36H20C21.6569 36 23 34.6569 23 33V28H11C9.34315 28 8 26.6569 8 25V12C8 10.3431 9.34315 9 11 9H23V3C23 1.34315 21.6569 0 20 0H3Z" fill="white"/>
<path d="M23 28H24V27H23V28ZM23 9V10H24V9H23ZM1 3C1 1.89543 1.89543 1 3 1V-1C0.790861 -1 -1 0.79086 -1 3H1ZM1 33V3H-1V33H1ZM3 35C1.89543 35 1 34.1046 1 33H-1C-1 35.2091 0.790862 37 3 37V35ZM20 35H3V37H20V35ZM22 33C22 34.1046 21.1046 35 20 35V37C22.2091 37 24 35.2091 24 33H22ZM22 28V33H24V28H22ZM23 27H11V29H23V27ZM11 27C9.89543 27 9 26.1046 9 25H7C7 27.2091 8.79086 29 11 29V27ZM9 25V12H7V25H9ZM9 12C9 10.8954 9.89543 10 11 10V8C8.79086 8 7 9.79086 7 12H9ZM11 10H23V8H11V10ZM22 3V9H24V3H22ZM20 1C21.1046 1 22 1.89543 22 3H24C24 0.790861 22.2091 -1 20 -1V1ZM3 1H20V-1H3V1Z" fill="#424242" mask="url(#path-2-inside-1_13144_4875)"/>
<rect x="8.5" y="17.5" width="27" height="3" fill="#1FD691" stroke="#424242"/>
<path d="M30.5 14.6699L38 19L30.5 23.3301V14.6699Z" fill="#1FD691" stroke="black"/>
</svg>
