<svg width="73" height="73" viewBox="0 0 73 73" fill="none" xmlns="http://www.w3.org/2000/svg">
<path d="M21.2915 54.75V51.7083C21.2915 47.6748 22.8938 43.8065 25.7459 40.9544C28.598 38.1023 32.4663 36.5 36.4998 36.5M36.4998 36.5C40.5333 36.5 44.4016 38.1023 47.2538 40.9544C50.1059 43.8065 51.7082 47.6748 51.7082 51.7083V54.75M36.4998 36.5C38.9199 36.5 41.2409 35.5386 42.9522 33.8274C44.6635 32.1161 45.6248 29.7951 45.6248 27.375C45.6248 24.9549 44.6635 22.6339 42.9522 20.9227C41.2409 19.2114 38.9199 18.25 36.4998 18.25C34.0797 18.25 31.7588 19.2114 30.0475 20.9227C28.3362 22.6339 27.3748 24.9549 27.3748 27.375C27.3748 29.7951 28.3362 32.1161 30.0475 33.8274C31.7588 35.5386 34.0797 36.5 36.4998 36.5ZM3.0415 54.75V51.7083C3.0415 49.2882 4.00288 46.9673 5.71415 45.256C7.42542 43.5447 9.7464 42.5833 12.1665 42.5833M12.1665 42.5833C13.7799 42.5833 15.3272 41.9424 16.4681 40.8016C17.6089 39.6607 18.2498 38.1134 18.2498 36.5C18.2498 34.8866 17.6089 33.3393 16.4681 32.1984C15.3272 31.0576 13.7799 30.4167 12.1665 30.4167C10.5531 30.4167 9.00578 31.0576 7.86494 32.1984C6.72409 33.3393 6.08317 34.8866 6.08317 36.5C6.08317 38.1134 6.72409 39.6607 7.86494 40.8016C9.00578 41.9424 10.5531 42.5833 12.1665 42.5833ZM69.9582 54.75V51.7083C69.9582 49.2882 68.9968 46.9673 67.2855 45.256C65.5742 43.5447 63.2533 42.5833 60.8332 42.5833M60.8332 42.5833C62.4466 42.5833 63.9939 41.9424 65.1347 40.8016C66.2756 39.6607 66.9165 38.1134 66.9165 36.5C66.9165 34.8866 66.2756 33.3393 65.1347 32.1984C63.9939 31.0576 62.4466 30.4167 60.8332 30.4167C59.2198 30.4167 57.6724 31.0576 56.5316 32.1984C55.3908 33.3393 54.7498 34.8866 54.7498 36.5C54.7498 38.1134 55.3908 39.6607 56.5316 40.8016C57.6724 41.9424 59.2198 42.5833 60.8332 42.5833Z" stroke="#930000" stroke-width="4.5625" stroke-linecap="round" stroke-linejoin="round"/>
</svg>
