<svg width="56" height="56" viewBox="0 0 56 56" fill="none" xmlns="http://www.w3.org/2000/svg">
<path d="M48.9999 4.66669H6.99992C5.76224 4.66669 4.57526 5.15835 3.70009 6.03352C2.82492 6.90869 2.33325 8.09568 2.33325 9.33335V37.3334C2.33325 38.571 2.82492 39.758 3.70009 40.6332C4.57526 41.5084 5.76224 42 6.99992 42H23.3332V46.6667H18.6666V51.3334H37.3332V46.6667H32.6666V42H48.9999C50.2376 42 51.4246 41.5084 52.2997 40.6332C53.1749 39.758 53.6666 38.571 53.6666 37.3334V9.33335C53.6666 8.09568 53.1749 6.90869 52.2997 6.03352C51.4246 5.15835 50.2376 4.66669 48.9999 4.66669ZM48.9999 37.3334H6.99992V9.33335H48.9999V37.3334Z" fill="#930000"/>
<path d="M14 16.3333V30.3333C14 30.9522 14.2458 31.5457 14.6834 31.9832C15.121 32.4208 15.7145 32.6667 16.3333 32.6667H39.6667C40.2855 32.6667 40.879 32.4208 41.3166 31.9832C41.7542 31.5457 42 30.9522 42 30.3333V16.3333C42 15.7145 41.7542 15.121 41.3166 14.6834C40.879 14.2458 40.2855 14 39.6667 14H16.3333C15.7145 14 15.121 14.2458 14.6834 14.6834C14.2458 15.121 14 15.7145 14 16.3333ZM39.6667 30.3333H16.3333V18.6667H39.6667V30.3333Z" fill="#930000"/>
</svg>
