<svg width="42" height="41" viewBox="0 0 42 41" fill="none" xmlns="http://www.w3.org/2000/svg">
<path d="M34.1313 24.0756L34.4457 21.1628C34.6114 19.6083 34.7224 18.5833 34.6353 17.9375H34.666C35.2508 17.9374 35.8179 17.7372 36.2732 17.3703C36.7285 17.0034 37.0447 16.4918 37.1691 15.9205C37.2936 15.3491 37.2189 14.7524 36.9575 14.2293C36.6961 13.7063 36.2636 13.2884 35.7319 13.045C35.2002 12.8016 34.6013 12.7474 34.0345 12.8914C33.4678 13.0353 32.9673 13.3688 32.6162 13.8364C32.2651 14.304 32.0845 14.8776 32.1043 15.462C32.1242 16.0464 32.3433 16.6065 32.7254 17.0492C32.1685 17.3925 31.4407 18.1186 30.3457 19.2102C29.5 20.0524 29.0781 20.4727 28.6066 20.5376C28.3453 20.5736 28.0792 20.5364 27.8378 20.43C27.4039 20.2386 27.1135 19.7193 26.5344 18.6789L23.4765 13.1969C23.1194 12.5563 22.8205 12.0181 22.5505 11.5876C23.2343 11.2392 23.7809 10.6707 24.1022 9.97377C24.4235 9.27682 24.5008 8.49199 24.3216 7.74575C24.1425 6.99951 23.7173 6.33532 23.1146 5.8602C22.5119 5.38508 21.7668 5.12671 20.9994 5.12671C20.2319 5.12671 19.4868 5.38508 18.8841 5.8602C18.2815 6.33532 17.8563 6.99951 17.6771 7.74575C17.498 8.49199 17.5752 9.27682 17.8965 9.97377C18.2178 10.6707 18.7644 11.2392 19.4482 11.5876C19.1783 12.0198 18.8793 12.5563 18.5206 13.1969L15.4644 18.6789C14.8835 19.7193 14.5931 20.2386 14.1592 20.43C13.9179 20.5364 13.6517 20.5736 13.3905 20.5376C12.9207 20.4727 12.4987 20.0524 11.6531 19.2102C10.558 18.1186 9.83029 17.3925 9.27337 17.0492C9.65541 16.6065 9.87454 16.0464 9.8944 15.462C9.91426 14.8776 9.73364 14.304 9.38254 13.8364C9.03143 13.3688 8.53096 13.0353 7.96421 12.8914C7.39746 12.7474 6.79852 12.8016 6.26683 13.045C5.73514 13.2884 5.30268 13.7063 5.04125 14.2293C4.77981 14.7524 4.70513 15.3491 4.82961 15.9205C4.95408 16.4918 5.27022 17.0034 5.72553 17.3703C6.18085 17.7372 6.74796 17.9374 7.3327 17.9375H7.36345C7.27633 18.5833 7.38737 19.61 7.55308 21.1628L7.86741 24.0756C8.04166 25.6916 8.18516 27.2308 8.36283 28.6146H33.6359C33.8136 27.2308 33.9571 25.6933 34.1313 24.0756ZM19.1407 35.875H22.858C27.7029 35.875 30.1253 35.875 31.7414 34.4281C32.4469 33.796 32.8928 32.6582 33.2157 31.1771H8.78308C9.10595 32.6582 9.55183 33.7977 10.2574 34.4281C11.8735 35.875 14.2959 35.875 19.1407 35.875Z" fill="url(#paint0_linear_410_1176)"/>
<defs>
<linearGradient id="paint0_linear_410_1176" x1="20.9994" y1="5.12671" x2="20.9994" y2="39.2294" gradientUnits="userSpaceOnUse">
<stop stop-color="#E00000"/>
<stop offset="0.724989" stop-color="#930000"/>
</linearGradient>
</defs>
</svg>
