<svg width="28" height="26" viewBox="0 0 28 26" fill="none" xmlns="http://www.w3.org/2000/svg">
<path id="Vector" fill-rule="evenodd" clip-rule="evenodd" d="M6.84541 0.5C6.46823 0.500123 6.09691 0.593382 5.76443 0.771494C5.43196 0.949607 5.1486 1.20706 4.93954 1.521L0.241624 8.56591C-0.0450422 8.99787 -0.0790755 9.55026 0.152613 10.0136C2.72356 15.1554 6.29637 19.7313 10.6611 23.4725L12.9518 25.4373C13.2436 25.6874 13.6153 25.8249 13.9996 25.8249C14.384 25.8249 14.7556 25.6874 15.0474 25.4373L17.3382 23.4738C21.7035 19.7324 25.2768 15.156 27.8479 10.0136C28.0796 9.55026 28.0443 8.99787 27.7576 8.56591L23.0571 1.521C22.848 1.20749 22.5648 0.950405 22.2325 0.772535C21.9003 0.594665 21.5294 0.501504 21.1525 0.501309L6.84541 0.5ZM6.57314 2.60876C6.60307 2.56402 6.64358 2.52735 6.69107 2.502C6.73856 2.47666 6.79157 2.46342 6.84541 2.46346H9.90841L7.40172 8.47952C7.3443 8.61716 7.30046 8.76008 7.27082 8.90624C6.34896 8.83742 5.42821 8.75451 4.50888 8.65754L2.66977 8.46512L6.57314 2.60876ZM2.58469 10.4299C4.93352 14.7391 8.03397 18.5936 11.7397 21.8114L7.64912 10.9024C6.53308 10.8258 5.41852 10.7289 4.30599 10.6118L2.58469 10.4299ZM9.79191 11.0242L13.999 22.2473L18.2073 11.0242C15.4032 11.1516 12.5947 11.1516 9.7906 11.0242H9.79191ZM20.3514 10.9024L16.2609 21.8114C19.9666 18.5936 23.067 14.7391 25.4158 10.4299L23.6945 10.6118C22.5819 10.7283 21.468 10.8252 20.3514 10.9024ZM25.3295 8.46512L23.489 8.65885C22.5697 8.75582 21.649 8.83873 20.7271 8.90755C20.698 8.76098 20.6546 8.61762 20.5975 8.47952L18.0895 2.46346H21.1525C21.2063 2.46342 21.2594 2.47666 21.3068 2.502C21.3543 2.52735 21.3949 2.56402 21.4248 2.60876L25.3295 8.46512ZM18.7021 9.03452C15.5697 9.19684 12.4321 9.19684 9.29843 9.03452L12.0355 2.46346H15.9624L18.7008 9.03452H18.7021Z" fill="#930000"/>
</svg>
