<svg width="36" height="35" viewBox="0 0 36 35" fill="none" xmlns="http://www.w3.org/2000/svg">
<path id="Vector" d="M24.3239 0.5L17.9875 7.83065L22.5725 5.38715L22.8947 5.21472L23.2168 5.38932L24.5464 6.11085L24.324 0.5H24.3239ZM8.97186 2.2267L10.7414 11.6945L17.1822 8.26176L8.97186 2.2267ZM22.8901 6.75759L5.59831 15.9734L13.4978 20.1549L30.7376 11.0251L22.8901 6.75759H22.8901ZM25.9936 10.0019L27.8518 10.9479L13.5272 18.4942L8.67225 15.9031L10.5122 14.9298L13.5273 16.5408L25.9938 10.002L25.9936 10.0019ZM32.6864 11.3247L33.3465 13.0693L35.25 11.4245L32.6863 11.3246L32.6864 11.3247ZM31.5406 12.1346L14.0287 21.4094L13.609 27.4627L33.3601 16.9491L31.5406 12.1346ZM7.25209 13.555L0.75 15.3109L3.42712 16.7312L3.86946 15.5493L3.96021 15.3087L4.18715 15.1884L7.25224 13.5549L7.25209 13.555ZM4.75196 17.0625L2.66027 22.6529L12.2319 27.7464L12.6787 21.2576L4.75189 17.0626L4.75196 17.0625ZM29.0972 20.7562L16.4471 27.49L20.4332 35L23.1783 24.8445L33.5213 26.7775L29.0972 20.7559L29.0972 20.7562ZM7.26581 26.6416L5.85465 29.895L10.0017 28.0958L7.26567 26.6414L7.26581 26.6416Z" fill="#930000"/>
</svg>
