<svg width="25" height="19" viewBox="0 0 25 19" fill="none" xmlns="http://www.w3.org/2000/svg">
<path fill-rule="evenodd" clip-rule="evenodd" d="M3.02273 1.72727C2.30727 1.72727 1.72727 2.30727 1.72727 3.02273V15.9773C1.72727 16.6927 2.30727 17.2727 3.02273 17.2727H21.1591C21.8746 17.2727 22.4545 16.6927 22.4545 15.9773V3.02273C22.4545 2.30727 21.8746 1.72727 21.1591 1.72727H3.02273ZM0 3.02273C0 1.35332 1.35332 0 3.02273 0H21.1591C22.8285 0 24.1818 1.35332 24.1818 3.02273V15.9773C24.1818 17.6467 22.8285 19 21.1591 19H3.02273C1.35332 19 0 17.6467 0 15.9773V3.02273Z" fill="#930000"/>
<path fill-rule="evenodd" clip-rule="evenodd" d="M3.63606 3.78804C3.9289 3.41154 4.4715 3.34372 4.848 3.63655L12.0905 9.26961L19.333 3.63655C19.7095 3.34372 20.2521 3.41154 20.5449 3.78804C20.8378 4.16454 20.77 4.70715 20.3935 4.99998L12.6207 11.0454C12.3089 11.288 11.8722 11.288 11.5603 11.0454L3.78756 4.99998C3.41106 4.70715 3.34323 4.16454 3.63606 3.78804Z" fill="#930000"/>
</svg>
