<svg width="56" height="56" viewBox="0 0 56 56" fill="none" xmlns="http://www.w3.org/2000/svg">
<path d="M46.6667 4.66669H9.33337V9.33335L22.89 19.5067C18.7758 20.8634 15.3685 23.7981 13.4171 27.6659C11.4657 31.5337 11.1298 36.018 12.4834 40.1334C13.153 42.172 14.218 44.0586 15.6175 45.6852C17.0169 47.3119 18.7233 48.6467 20.6391 49.6132C22.5549 50.5798 24.6424 51.1591 26.7823 51.3182C28.9222 51.4772 31.0724 51.2128 33.11 50.54C36.3778 49.466 39.2231 47.3876 41.2402 44.6014C43.2573 41.8151 44.3433 38.4631 44.3433 35.0234C44.3433 31.5836 43.2573 28.2316 41.2402 25.4453C39.2231 22.6591 36.3778 20.5808 33.11 19.5067L46.6667 9.33335V4.66669ZM34.86 45.5L28 41.4867L21.14 45.5L22.96 37.73L16.9167 32.5034L24.8734 31.8267L28 24.5L31.1267 31.8267L39.0834 32.5034L33.04 37.73L34.86 45.5Z" fill="#930000"/>
</svg>
