<svg width="27" height="27" viewBox="0 0 27 27" fill="none" xmlns="http://www.w3.org/2000/svg">
<g clip-path="url(#clip0_678_700)">
<path d="M6.16594 2.24101C6.06632 2.11286 5.94058 2.00738 5.79706 1.93156C5.65354 1.85575 5.49553 1.81134 5.33353 1.80128C5.17153 1.79123 5.00924 1.81576 4.85745 1.87324C4.70566 1.93073 4.56783 2.01985 4.45313 2.1347L2.70826 3.88126C1.89319 4.69801 1.59282 5.85395 1.94888 6.86813C3.42669 11.0659 5.83063 14.8772 8.98238 18.0191C12.1244 21.1708 15.9356 23.5748 20.1334 25.0526C21.1476 25.4087 22.3035 25.1083 23.1203 24.2933L24.8651 22.5484C24.98 22.4337 25.0691 22.2959 25.1266 22.1441C25.1841 21.9923 25.2086 21.83 25.1985 21.668C25.1885 21.506 25.1441 21.348 25.0683 21.2045C24.9924 21.0609 24.887 20.9352 24.7588 20.8356L20.8658 17.8082C20.7288 17.702 20.5696 17.6283 20.4001 17.5926C20.2305 17.557 20.0551 17.5603 19.887 17.6023L16.1914 18.5254C15.6981 18.6487 15.1813 18.6421 14.6913 18.5064C14.2013 18.3707 13.7547 18.1104 13.3952 17.7508L9.25069 13.6046C8.89087 13.2453 8.63024 12.7988 8.49421 12.3088C8.35817 11.8188 8.35136 11.3019 8.47444 10.8084L9.39919 7.11282C9.44123 6.94474 9.44453 6.76931 9.40887 6.59976C9.37321 6.43021 9.2995 6.27098 9.19332 6.13407L6.16594 2.24101ZM3.17907 0.862322C3.47437 0.566924 3.82914 0.33773 4.21982 0.189957C4.61049 0.0421837 5.02813 -0.020786 5.44501 0.00522903C5.86189 0.031244 6.26846 0.145648 6.63774 0.340845C7.00701 0.536042 7.33053 0.807565 7.58682 1.13738L10.6142 5.02876C11.1694 5.74257 11.3651 6.67238 11.1458 7.54988L10.2227 11.2455C10.175 11.4369 10.1775 11.6374 10.2302 11.8275C10.2828 12.0177 10.3837 12.191 10.5231 12.3306L14.6693 16.4768C14.809 16.6164 14.9826 16.7175 15.1731 16.7701C15.3635 16.8227 15.5643 16.8252 15.756 16.7771L19.4499 15.8541C19.883 15.7458 20.335 15.7374 20.7717 15.8295C21.2085 15.9216 21.6186 16.1117 21.9711 16.3856L25.8624 19.413C27.2614 20.5014 27.3896 22.5686 26.1375 23.8191L24.3926 25.5639C23.1439 26.8127 21.2775 27.3611 19.5377 26.7486C15.0847 25.1818 11.0416 22.6325 7.70832 19.2898C4.36587 15.957 1.81659 11.9145 0.249568 7.46213C-0.361307 5.72401 0.187131 3.85595 1.43588 2.6072L3.18076 0.862322H3.17907Z" fill="#930000"/>
</g>
<defs>
<clipPath id="clip0_678_700">
<rect width="27" height="27" fill="white"/>
</clipPath>
</defs>
</svg>
