<svg width="29" height="29" viewBox="0 0 29 29" fill="none" xmlns="http://www.w3.org/2000/svg">
<path id="Vector" d="M5.17833 0.5C3.93756 0.5 2.74761 0.992894 1.87025 1.87025C0.992894 2.74761 0.5 3.93756 0.5 5.17833L0.5 23.8217C0.5 26.4 2.6 28.4883 5.17833 28.5H23.8217C26.4 28.5 28.5 26.4 28.5 23.8217V5.16667C28.4969 3.92792 28.0027 2.74096 27.1256 1.86612C26.2486 0.991289 25.0604 0.499996 23.8217 0.5L5.16667 0.5H5.17833ZM7.06833 5.58667H21.9317C22.7483 5.58667 23.4017 6.25167 23.4017 7.06833V21.9317C23.4017 22.7483 22.7483 23.4133 21.9317 23.4133H7.06833C6.25167 23.4133 5.59833 22.7483 5.59833 21.9317V7.06833C5.59832 6.67738 5.75282 6.30227 6.02817 6.02474C6.30352 5.74721 6.6774 5.58974 7.06833 5.58667ZM11.5367 10.6617C11.3108 10.6617 11.0942 10.7514 10.9344 10.9111C10.7747 11.0708 10.685 11.2875 10.685 11.5133V17.4517C10.685 17.9183 11.0583 18.2917 11.525 18.2917H17.475C17.6989 18.2917 17.9137 18.2036 18.0731 18.0464C18.2325 17.8892 18.3236 17.6755 18.3267 17.4517V11.5133C18.3267 11.4015 18.3046 11.2907 18.2618 11.1874C18.219 11.0841 18.1563 10.9902 18.0772 10.9111C17.9981 10.832 17.9042 10.7693 17.8009 10.7265C17.6976 10.6837 17.5868 10.6617 17.475 10.6617H11.525H11.5367Z" fill="#930000"/>
</svg>
