<svg width="56" height="56" viewBox="0 0 56 56" fill="none" xmlns="http://www.w3.org/2000/svg">
<path d="M38.1733 32.6667C38.36 31.1267 38.5 29.5867 38.5 28C38.5 26.4134 38.36 24.8734 38.1733 23.3334H46.06C46.4333 24.8267 46.6666 26.39 46.6666 28C46.6666 29.61 46.4333 31.1734 46.06 32.6667M34.0433 45.64C35.4433 43.05 36.5166 40.25 37.2633 37.3334H44.1466C41.886 41.226 38.2996 44.1747 34.0433 45.64ZM33.46 32.6667H22.54C22.3066 31.1267 22.1666 29.5867 22.1666 28C22.1666 26.4134 22.3066 24.85 22.54 23.3334H33.46C33.67 24.85 33.8333 26.4134 33.8333 28C33.8333 29.5867 33.67 31.1267 33.46 32.6667ZM28 46.5733C26.0633 43.7733 24.5 40.67 23.5433 37.3334H32.4566C31.5 40.67 29.9366 43.7733 28 46.5733ZM18.6666 18.6667H11.8533C14.0906 14.7635 17.6745 11.8102 21.9333 10.36C20.5333 12.95 19.4833 15.75 18.6666 18.6667ZM11.8533 37.3334H18.6666C19.4833 40.25 20.5333 43.05 21.9333 45.64C17.6834 44.1739 14.1046 41.2247 11.8533 37.3334ZM9.93996 32.6667C9.56663 31.1734 9.33329 29.61 9.33329 28C9.33329 26.39 9.56663 24.8267 9.93996 23.3334H17.8266C17.64 24.8734 17.5 26.4134 17.5 28C17.5 29.5867 17.64 31.1267 17.8266 32.6667M28 9.40335C29.9366 12.2034 31.5 15.33 32.4566 18.6667H23.5433C24.5 15.33 26.0633 12.2034 28 9.40335ZM44.1466 18.6667H37.2633C36.533 15.7768 35.4516 12.9871 34.0433 10.36C38.3366 11.83 41.9066 14.7934 44.1466 18.6667ZM28 4.66669C15.0966 4.66669 4.66663 15.1667 4.66663 28C4.66663 34.1884 7.12495 40.1233 11.5008 44.4992C13.6675 46.6659 16.2397 48.3846 19.0707 49.5572C21.9016 50.7298 24.9358 51.3334 28 51.3334C34.1883 51.3334 40.1233 48.875 44.4991 44.4992C48.875 40.1233 51.3333 34.1884 51.3333 28C51.3333 24.9358 50.7298 21.9017 49.5571 19.0707C48.3845 16.2398 46.6658 13.6676 44.4991 11.5009C42.3324 9.33416 39.7602 7.61544 36.9292 6.44283C34.0983 5.27022 31.0641 4.66669 28 4.66669Z" fill="#930000"/>
</svg>
